<svg xmlns="http://www.w3.org/2000/svg" width="1322.667" height="1706.667" version="1.0" viewBox="0 0 992 1280">
  <path d="M471 1.1C409.3 6.9 352.7 33 308.6 76c-24.1 23.5-40.6 46-54.6 74.5-20.7 42.2-29 80.5-27.7 128 .8 29.1 4.6 51 13.2 77 29.1 87.4 101.1 154.3 190.2 176.9 73.6 18.7 152.8 5.1 215.6-36.8 16.7-11.2 26.7-19.4 42.2-35 51.1-51.3 78.6-117.9 78.5-190.1-.1-43.9-8.6-80.5-28-120.1C703 79.2 636.5 25.9 559.5 7.6 531.3.8 498.8-1.6 471 1.1zM466.5 566.1c-34.3 2.7-67.2 9.4-100 20.4-104.8 35-199.2 114.2-265.3 222.7-59.7 98-93.6 211.4-100.2 335.3-1.6 29.8-1.3 42.2.9 47.2 15.7 34.4 124.5 64.6 285.6 79.2 71.7 6.5 121.4 8.6 208.5 8.5 66.5 0 89.1-.5 140.5-3.4 70.1-4 141.3-11.9 197-22 90-16.3 145.7-38.5 156.6-62.3 2.2-5 2.5-17.4.9-47.2-7.5-139.9-50.5-268.2-124.6-372.2C771.7 639.6 635.6 564 493.6 565.1c-9.4.1-21.6.5-27.1 1z"/>
</svg>
